<?xml version="1.0" encoding="UTF-8" standalone="no"?>
<!-- Created with Inkscape (http://www.inkscape.org/) -->
<svg xmlns:inkscape="http://www.inkscape.org/namespaces/inkscape" xmlns:rdf="http://www.w3.org/1999/02/22-rdf-syntax-ns#" xmlns="http://www.w3.org/2000/svg" xmlns:xlink="http://www.w3.org/1999/xlink" xmlns:ns1="http://sozi.baierouge.fr" xmlns:cc="http://creativecommons.org/ns#" xmlns:sodipodi="http://sodipodi.sourceforge.net/DTD/sodipodi-0.dtd" xmlns:dc="http://purl.org/dc/elements/1.1/" id="svg2" xml:space="preserve" viewBox="0 0 85.401 37.777" version="1.1" inkscape:version="0.91 r13725">
  <g id="g10" transform="matrix(1.25 0 0 -1.25 0 37.777)">
    <g id="g12">
      <path id="path14" style="fill-rule:evenodd;fill:#414428" d="m65.52 10.499c-0.028-0.105-0.055-0.242-0.082-0.402-0.079-0.399-0.09-0.653-0.04-0.758 0.082-0.188 0.387-0.481 0.922-0.879 0.399-0.293 0.547-0.652 0.438-1.082-1.172-0.16-2.824-0.266-4.957-0.32-2.453-0.051-4.121-0.118-5-0.2l-0.082-0.64c-1.492-0.371-2.68-0.653-3.559-0.84-1.601-0.32-2.625-0.066-3.082 0.762 0.055-0.934-0.238-1.735-0.879-2.403-0.347-0.211-0.773-0.386-1.281-0.519-0.078-0.133-0.145-0.414-0.199-0.84-0.028-0.371-0.094-0.625-0.199-0.758-0.426-0.562-1.067-0.773-1.922-0.64-1.012 0.238-1.774 0.371-2.278 0.398 0 0.105-0.066 0.281-0.199 0.52-0.137 0.265-0.215 0.441-0.242 0.519-0.215-0.16-0.481-0.508-0.801-1.039-0.32-0.48-0.586-0.773-0.801-0.883-0.586-0.265-1.277-0.289-2.078-0.078-0.855 0.215-1.387 0.602-1.601 1.16-0.774-0.265-1.453-0.375-2.039-0.32-0.719 0.055-1.121 0.32-1.2 0.801-0.054-0.293-0.293-0.535-0.722-0.719-0.664-0.188-1.106-0.32-1.317-0.402-0.988-0.454-1.761-0.747-2.32-0.879-1.066-0.215-1.629 0.172-1.68 1.16-0.75-0.586-1.386-0.801-1.922-0.641 0.106 0.613 0.493 1.227 1.161 1.84-0.508-0.348-1.172-0.426-2-0.238-0.055 0.586 0.214 1.051 0.8 1.398-0.8-0.293-1.601-0.359-2.402-0.199 0.109 0.531 0.336 1.078 0.68 1.641-0.426-0.403-0.946-0.508-1.559-0.321-0.32-0.558-0.707-0.972-1.16-1.242-0.586-0.316-1.106-0.266-1.559 0.16-0.265-0.801-0.949-1.304-2.039-1.519-0.882-0.188-1.8-0.16-2.761 0.082 0.027 0.504 0.132 0.879 0.32 1.117-1.359-0.398-2.149-0.625-2.359-0.68-0.934-0.215-1.735-0.226-2.403-0.039 0.082 0.078 0.149 0.238 0.203 0.481 0.024 0.105 0.2 0.199 0.52 0.281-0.828-0.055-1.442-0.082-1.84-0.082-0.719 0.027-1.266 0.187-1.641 0.484l0.602 0.399c-1.199-0.082-2.734 0.027-4.602 0.32-2.371 0.398-3.824 0.613-4.359 0.637 0.535 0.777 2.012 1.386 4.441 1.843 0.321-0.16 0.907-0.242 1.758-0.242-0.371-0.558-0.238-0.879 0.403-0.957 0.32-0.054 0.839-0.082 1.558-0.082-0.187-0.906 0.586-1.332 2.32-1.281 0.614 0.027 1.774 0.187 3.481 0.48v-0.32c0.371-0.32 0.961-0.426 1.758-0.32 0.695 0.082 1.269 0.254 1.722 0.519 0.133 0.082 0.36 0.254 0.68 0.52l0.957-0.16c0.75-0.051 1.481-0.012 2.203 0.121 0.239 0.027 0.731 0.199 1.481 0.519 0.879 0.321 1.492 0.375 1.84 0.161 0.16-0.106 0.253-0.227 0.277-0.36 0.027-0.082 0.043-0.187 0.043-0.32l0.078-0.16 0.32-0.2c0.348-0.16 0.895-0.214 1.641-0.16-0.16-0.64 0.078-1 0.719-1.082l1.558-0.117c0.403-0.082 0.442-0.402 0.121-0.961 0.586-0.055 1.028-0.066 1.321-0.039l1.441 0.117c0.559 0.082 1.078 0.254 1.559 0.524h0.082l0.078 0.078c0.082 0 0.48-0.094 1.199-0.281 0.484-0.133 0.883-0.028 1.203 0.32 0.238 0.238 0.414 0.695 0.52 1.359 0.105 0.668 0.105 1.176 0 1.52l-0.16 0.359c-0.293 0.375-0.454 0.586-0.481 0.641-0.055 0.133-0.016 0.402 0.117 0.801 0.16 0.453 0.242 0.757 0.242 0.918l-0.082 0.281c0.028 0 0.227 0.015 0.602 0.043 0.266 0.023 0.453-0.016 0.559-0.121 0.132-0.133 0.148-0.469 0.043-1-0.055-0.266-0.149-0.586-0.282-0.961 0.239-0.157 0.602-0.211 1.078-0.157 0.536 0.024 0.895 0.012 1.082-0.042 0-0.051-0.121-0.415-0.359-1.079-0.133-0.402-0.176-0.761-0.121-1.082 0.613-0.054 1.082-0.082 1.402-0.082 0.559 0.028 1 0.149 1.321 0.364-0.43-0.668-0.442-1.161-0.043-1.481 0.265-0.215 0.695-0.176 1.281 0.117 0.32 0.133 0.707 0.348 1.16 0.641 0.32 0.133 0.492 0.227 0.52 0.281 0.027 0 0.238-0.082 0.64-0.238 1.094-0.348 2.106-0.414 3.039-0.203 1.121 0.293 1.68 0.961 1.68 2v0.84c0.027 0.054 0.16 0.242 0.402 0.562l0.879 1.36 0.481 0.796 0.078-0.156 0.242-0.601c0.106-0.106 0.359-0.188 0.758-0.243 0.484-0.078 1.043-0.023 1.683 0.161 0.692 0.187 1.184 0.468 1.481 0.839-0.082-0.132-0.227-0.343-0.442-0.636-0.187-0.293-0.253-0.535-0.199-0.719 1.012-0.109 1.758 0.344 2.239 1.355 0.668-0.613 1.148-0.586 1.441 0.082 0.293 0.641 0.148 1.227-0.441 1.762 0.507-0.027 0.855 0.024 1.039 0.156 0.214 0.161 0.214 0.496 0 1 0.214 0.11 0.336 0.297 0.363 0.563-0.027 0.293-0.043 0.519-0.043 0.68 0.269 0.906 0.414 1.613 0.441 2.121 0.078 0.027 0.172 0.05 0.282 0.078h0.078c0.75 0 1.496 0.039 2.242 0.121l0.078-0.121c0.082-0.16 0.148-0.399 0.199-0.719 0.028-0.293 0.094-0.519 0.203-0.68-0.027-0.32 0.039-0.629 0.2-0.922 0.613-0.132 1.281-0.386 2-0.757 0.187-0.321 0.242-0.668 0.16-1.043v-0.078c-0.16 0.027-0.321 0.027-0.481 0-0.558-0.055-1.172-0.2-1.84-0.442-0.855-0.293-1.375-0.613-1.558-0.961l-1.242-0.758c0.187 0.051 0.468 0.094 0.839 0.118 0.403 0.082 0.973 0.214 1.719 0.402 0.641 0.133 1.199 0.215 1.684 0.238 0.183 0.004 0.367-0.008 0.555-0.035zm-31.321 2.238c0.375 0.082 0.641-0.105 0.801-0.558 0.027-0.16 0.078-0.574 0.16-1.239l0.039-0.402 0.922 0.16 0.117 0.039h0.121c0.321 0.055 0.52-0.011 0.602-0.199l0.039-0.281c-0.055-0.266-0.254-0.625-0.602-1.078l-0.039 0.16c-0.105 0.133-0.254 0.25-0.437 0.359-0.188 0.106-0.336 0.2-0.442 0.282-0.242 0.132-0.414 0.343-0.519 0.636l-0.16 0.364-0.039 0.117c-0.27 0.801-0.43 1.242-0.485 1.32l-0.117 0.16-0.082 0.121 0.082 0.039h0.039z" inkscape:connector-curvature="0"/>
        <path id="path16" style="fill-rule:evenodd;fill:#585d3b" d="m65.52 10.499c-0.188 0.027-0.375 0.039-0.559 0.039-0.481-0.027-1.039-0.105-1.68-0.238-0.746-0.188-1.32-0.32-1.719-0.402-0.374-0.024-0.656-0.067-0.839-0.118l1.238 0.758c0.187 0.348 0.707 0.668 1.559 0.961 0.668 0.242 1.281 0.387 1.839 0.441 0.161 0.024 0.321 0.024 0.481 0 0.48-0.027 0.922-0.242 1.32-0.64 0.188-0.215 0.574-0.762 1.16-1.641-0.32 0.051-0.867 0.239-1.64 0.559-0.426 0.16-0.813 0.254-1.16 0.281zm-9.801 14.121c0.133-0.269 0.226-0.535 0.281-0.801 0.055-0.242 0.066-0.496 0.039-0.761 0.75 0.429 1.535 0.402 2.359-0.078 0.723-0.403 1.137-0.961 1.243-1.68 0.105 0.453 0.171 1.039 0.199 1.758 0 0.882 0.055 1.507 0.16 1.882 0.398-0.589 0.465-1.789 0.199-3.601 0-0.027-0.039-0.149-0.121-0.359 0.215 0 0.414-0.04 0.602-0.122 0.054 0.028 0.109 0.067 0.16 0.122 0.265 0.16 1.066 0.597 2.398 1.32-0.078-0.453-0.437-1.027-1.078-1.723-0.027-0.746-0.082-1.304-0.16-1.679-0.078-0.293-0.133-0.559-0.16-0.801 0.027-0.211 0.066-0.438 0.121-0.68v-0.078l0.16-0.16c0.317 0 0.652-0.016 1-0.039 2.266-0.215 3.199-0.867 2.801-1.961-0.508 0.508-1.027 0.84-1.563 1-0.293 0.078-0.757 0.133-1.398 0.16l0.039-0.039v-0.043c-0.746-0.078-1.492-0.117-2.238-0.117h-0.082c-0.106-0.028-0.2-0.055-0.282-0.082-0.027-0.504-0.171-1.211-0.437-2.118 0-0.16 0.012-0.386 0.039-0.683-0.027-0.266-0.148-0.449-0.359-0.559 0.211-0.508 0.211-0.84 0-1-0.188-0.133-0.536-0.187-1.043-0.16 0.59-0.531 0.734-1.117 0.441-1.758-0.293-0.668-0.773-0.695-1.441-0.082-0.477-1.011-1.227-1.465-2.239-1.359-0.054 0.187 0.012 0.426 0.2 0.719 0.214 0.293 0.359 0.507 0.441 0.64-0.293-0.371-0.789-0.652-1.48-0.84-0.641-0.187-1.2-0.238-1.68-0.16-0.402 0.055-0.652 0.133-0.762 0.242l-0.238 0.598 0.16 1.121c0.613-0.668 1.055-0.562 1.32 0.321 0.188 0.613 0.266 1.316 0.239 2.117 0.027-0.344 0.187-0.614 0.48-0.801 0.293-0.156 0.602-0.133 0.922 0.082 0.16 0.105 0.293 0.426 0.398 0.961 0.082 0.371 0.332 0.508 0.762 0.398 0.133 0.403 0.024 0.895-0.32 1.481-0.348 0.535-0.574 0.906-0.68 1.121-0.187 0.398-0.16 0.707 0.078 0.918 0.11-0.133 0.254-0.227 0.442-0.277 0.214-0.082 0.453-0.094 0.718-0.04l0.2 2.438c0.109 0.934-0.012 2.016-0.36 3.242-0.051 0.16-0.265 0.543-0.64 1.16-0.321 0.477-0.465 0.864-0.438 1.16l0.32 0.118c0.106-0.133 0.2-0.278 0.278-0.438zm-19.598-13.922-0.922-0.16-0.039 0.402c0.293-0.054 0.613-0.027 0.961 0.079v-0.321zm0.879-0.441c0.215 0 0.625 0.016 1.238 0.043 0.508 0.051 0.828 0.051 0.961 0-0.027-0.215-0.144-0.508-0.359-0.883-0.215-0.426-0.348-0.719-0.399-0.879-0.027-0.16-0.027-0.308 0-0.441l1.2 0.16c0.64 0.133 1.171 0.348 1.597 0.641-0.371-0.532-0.597-1.106-0.679-1.719v-0.641c0.613-0.133 1.269-0.133 1.961 0 1.039 0.133 1.785 0.535 2.242 1.199-0.242-0.507-0.375-0.957-0.403-1.359l0.039-0.438c0.563-0.054 1.122 0.051 1.68 0.317 0.563 0.293 0.977 0.695 1.242 1.199 0.133 0.242 0.215 0.469 0.242 0.684 0.266-0.11 0.504-0.121 0.719-0.043 0.481 0.16 0.813 0.535 1 1.121 0.078 0.16 0.117 0.32 0.117 0.48 0.055-0.187 0.137-0.332 0.243-0.441 0.187-0.184 0.453-0.317 0.8-0.399 0.348-0.027 0.625-0.015 0.84 0.04l-0.883-1.36c-0.238-0.32-0.371-0.508-0.398-0.558v-0.84c0-1.043-0.559-1.707-1.68-2-0.933-0.215-1.949-0.149-3.043 0.199-0.398 0.16-0.613 0.238-0.636 0.238-0.028-0.051-0.203-0.144-0.52-0.281-0.453-0.289-0.844-0.504-1.16-0.637-0.586-0.293-1.016-0.336-1.281-0.121-0.403 0.32-0.387 0.813 0.039 1.481-0.321-0.215-0.758-0.332-1.321-0.36-0.32 0-0.785 0.028-1.398 0.082-0.055 0.317-0.012 0.676 0.121 1.078 0.238 0.664 0.359 1.028 0.359 1.079-0.187 0.054-0.546 0.066-1.082 0.042-0.48-0.054-0.839 0-1.078 0.157 0.133 0.375 0.227 0.695 0.278 0.961 0.109 0.535 0.093 0.867-0.039 1-0.106 0.109-0.293 0.148-0.559 0.121-0.375-0.028-0.574-0.039-0.602-0.039l0.082-0.282c-0.027 0.051-0.359 0.426-1 1.122 0.106-0.082 0.254-0.176 0.442-0.282 0.183-0.109 0.332-0.226 0.437-0.359l0.039-0.16c0.348 0.453 0.547 0.812 0.602 1.078zm-0.398-3.758 0.16-0.359c0.105-0.348 0.105-0.856 0-1.52-0.11-0.668-0.282-1.121-0.524-1.359-0.316-0.348-0.718-0.457-1.199-0.321-0.719 0.184-1.117 0.278-1.199 0.278l-0.078-0.078h-0.082c-0.481-0.27-1-0.442-1.559-0.52l-1.441-0.121c-0.293-0.027-0.735-0.016-1.321 0.039 0.321 0.559 0.282 0.883-0.121 0.961 0.215 0.027 0.414 0.133 0.602 0.32 0.133 0.161 0.293 0.575 0.48 1.239 0.051-0.453 0.332-0.758 0.84-0.918 0.078-0.055 0.278-0.11 0.598-0.16 0.242-0.028 0.469-0.028 0.68 0-0.133 0.32-0.239 0.707-0.317 1.16-0.027 0.824-0.066 1.492-0.121 2-0.055 0.558-0.105 0.972-0.16 1.238-0.242 0.828-0.387 1.27-0.442 1.32-0.132 0.11-0.453 0.149-0.96 0.121-0.614-0.054-0.958-0.066-1.04-0.039 0.536 0.532 1.028 0.84 1.481 0.918 0.559 0.082 0.973-0.199 1.242-0.84 0.156-0.402 0.371-1.066 0.637-2 0.109-0.347 0.215-0.668 0.32-0.96 0.133-0.426 0.254-0.774 0.36-1.04 0.054-0.16 0.175-0.414 0.363-0.761v0.242l0.437-0.281c1.067-0.559 1.774-0.586 2.121-0.078 0.028 0.023 0.039 0.183 0.039 0.476v0.281l0.204 0.762zm-11.68-1.281 0.437 0.281c0.028-0.16 0.016-0.375-0.039-0.641l-0.32 0.2-0.078 0.16zm-20.481 1.722c0.774 0.157 1.653 0.29 2.637 0.399 0.375 0.051 0.895 0.144 1.563 0.281 0.132 0.024 0.265 0.051 0.398 0.078 0.348 0.055 0.656 0.094 0.922 0.121h0.16c-0.746 0.825-1.601 1.934-2.562 3.321-0.399 0.64-0.692 1.05-0.879 1.238-0.293 0.242-0.547 0.32-0.758 0.242-0.055 0-0.309-0.16-0.762-0.48-0.668-0.508-1.027-0.789-1.082-0.844-0.664-0.797-1.039-1.356-1.117-1.68v1.321c0.027 0.453 0.144 0.855 0.359 1.203 0.266 0.425 0.586 0.84 0.961 1.238 0.481 0.48 0.907 0.734 1.278 0.762 0.855 0.05 1.789-0.629 2.8-2.043 0.481-0.692 1.121-1.508 1.922-2.442 0.024 0.137 0.067 0.254 0.117 0.364 0.403 0.957 0.922 1.25 1.563 0.879 0.184-0.106 0.437-0.559 0.758-1.36 0.109-0.215 0.215-0.453 0.32-0.719 0.082-0.269 0.176-0.546 0.281-0.839 0.106-0.243 0.254-0.536 0.442-0.883 0.133 0.027 0.277 0.054 0.437 0.082 1.254 0.183 2.094 0.48 2.52 0.879-0.453-0.481-0.625-0.985-0.52-1.52v-0.199h0.16c0.907-0.133 1.653 0.051 2.243 0.559l-0.043-1.36c0.746-0.133 1.574 0.199 2.48 1l-0.039-0.398c0.398-0.11 0.84 0.078 1.32 0.558l0.239 0.2-0.039-0.52c0-0.32 0.066-0.531 0.199-0.641h0.043c-0.75-0.32-1.242-0.492-1.481-0.519-0.722-0.133-1.453-0.172-2.203-0.121l-0.957 0.16c-0.32-0.266-0.547-0.438-0.68-0.516-0.453-0.269-1.027-0.441-1.722-0.523-0.797-0.106-1.387 0-1.758 0.32v0.32c-1.707-0.293-2.867-0.453-3.481-0.48-1.734-0.051-2.507 0.375-2.32 1.281-0.719 0-1.238 0.028-1.558 0.082-0.641 0.078-0.774 0.399-0.403 0.957-0.851 0-1.437 0.082-1.758 0.242zm56.957 12.84c0.055-0.16 0.11-0.363 0.161-0.601 0.027 0.051 0.054 0.105 0.082 0.16 0.187 0.398 0.332 0.773 0.437 1.121-0.078-0.055-0.156-0.121-0.238-0.203-0.16-0.16-0.305-0.317-0.442-0.477zm-27.238-7.043v0.801l0.039-0.801h-0.039zm0.121-0.32c0.078-0.398 0.227-0.84 0.442-1.32-0.321 0.269-0.508 0.761-0.563 1.484l0.121-0.164zm-22.801-4.16c0.051-0.078 0.122-0.16 0.2-0.238-0.078 0.132-0.149 0.238-0.2 0.32-0.027 0.051-0.054 0.094-0.082 0.117-0.105 0.109-0.21 0.188-0.32 0.242 0.11-0.133 0.242-0.281 0.402-0.441zm-1.16-0.637 0.039-0.281 0.039-0.039c0.055-0.11 0.227-0.188 0.524-0.242l-0.043 0.039c-0.184 0.16-0.371 0.336-0.559 0.523zm17.36-4c0.265 0.133 0.48 0.332 0.64 0.598-0.027-0.348 0.078-0.559 0.321-0.641l-0.961 0.043z" inkscape:connector-curvature="0"/>
        <path id="path18" style="fill-rule:evenodd;fill:#6d7247" d="m51.84 9.538-0.078 0.16-0.485-0.8c-0.211-0.051-0.492-0.067-0.839-0.04-0.344 0.082-0.614 0.215-0.797 0.399-0.11 0.109-0.188 0.254-0.243 0.441 0-0.16-0.039-0.32-0.121-0.48-0.183-0.586-0.515-0.961-1-1.121-0.211-0.078-0.449-0.067-0.718 0.043-0.024-0.215-0.106-0.442-0.239-0.684-0.265-0.504-0.679-0.906-1.242-1.199-0.558-0.266-1.117-0.371-1.68-0.317l-0.039 0.438c0.028 0.402 0.161 0.852 0.399 1.359-0.453-0.664-1.199-1.066-2.238-1.199-0.696-0.133-1.348-0.133-1.961 0v0.641c0.082 0.613 0.308 1.187 0.679 1.719-0.426-0.293-0.961-0.508-1.597-0.641l-1.203-0.16c-0.024 0.133-0.024 0.281 0 0.441 0.054 0.16 0.187 0.453 0.402 0.879 0.215 0.375 0.332 0.668 0.359 0.883-0.133 0.051-0.453 0.051-0.961 0-0.613-0.027-1.027-0.043-1.238-0.043l-0.039 0.281c-0.082 0.188-0.281 0.254-0.602 0.199h-0.121l-0.117-0.039v0.321c-0.348-0.106-0.668-0.133-0.961-0.079-0.082 0.665-0.133 1.079-0.16 1.239-0.16 0.453-0.426 0.64-0.801 0.558l-0.039 0.801v-0.801l-0.082-0.039 0.082-0.121c0.051-0.719 0.238-1.211 0.559-1.48l0.082-0.117 0.16-0.36c0.105-0.293 0.277-0.508 0.519-0.64 0.641-0.696 0.973-1.067 1-1.122 0-0.16-0.082-0.464-0.242-0.918-0.133-0.402-0.172-0.667-0.117-0.8 0.024-0.055 0.184-0.266 0.481-0.641l-0.204-0.762v-0.281c0-0.293-0.011-0.449-0.039-0.476-0.347-0.508-1.05-0.485-2.121 0.078l-0.437 0.281v-0.242c-0.188 0.347-0.309 0.601-0.36 0.761-0.109 0.266-0.226 0.614-0.363 1.04 0.828-0.106 1.602-0.094 2.32 0.042 0.055 0.719 0.094 1.278 0.122 1.68 0.054 0.426 0.082 0.692 0.082 0.797-0.028 0.242-0.149 0.469-0.364 0.68-0.265 0.242-0.597 0.402-1 0.484-0.16 0.16-0.238 0.332-0.238 0.516-0.238 0.297-0.508 0.761-0.801 1.402-0.265 0.668-0.504 1.133-0.719 1.399-0.375 0.48-0.585 0.828-0.64 1.042 0.773-0.292 1.695 0.333 2.762 1.879-0.055-0.586-0.082-0.945-0.082-1.078 0.027-0.375 0.199-0.656 0.519-0.843 0.293-0.157 0.773-0.118 1.441 0.121 0.348 0.16 0.797 0.375 1.36 0.64 0.051-0.105 0.066-0.48 0.039-1.117 0-0.562 0.082-0.894 0.242-1 0.371-0.269 0.945-0.215 1.719 0.156 0.64 0.293 1.148 0.641 1.519 1.043v-2.242c0.719-0.508 1.493-0.453 2.321 0.16 0.773 0.614 1.132 1.332 1.078 2.16 0.133-1.332 0.789-1.988 1.961-1.961 0.746 0.028 1.187 0.282 1.32 0.762 0.027 0.641 0.082 1.172 0.16 1.598 0.266 0 0.68-0.094 1.239-0.278 0.507-0.132 0.882-0.027 1.121 0.317 0.238 0.32 0.226 0.762-0.039 1.32-0.133 0.321-0.321 0.613-0.563 0.883 0.27-0.215 0.574-0.254 0.922-0.121 0.773 0.293 0.707 0.934-0.203 1.918 0.457 0.082 0.762 0.348 0.922 0.801 0.027 0.105 0 0.293-0.078 0.562-0.082 0.266-0.094 0.438-0.043 0.52 0.082 0.133 0.253 0.265 0.519 0.398 0.32 0.133 0.52 0.254 0.602 0.36 0.664 0.8 0.652 1.8-0.039 3v0.042c0.265-0.027 0.586 0.106 0.957 0.399 0.375 0.266 0.718 0.375 1.043 0.32 0.343-0.082 0.636-0.281 0.879-0.601l-0.317-0.118c-0.027-0.296 0.117-0.683 0.438-1.16 0.375-0.617 0.586-1 0.64-1.16 0.348-1.226 0.469-2.308 0.36-3.242l-0.2-2.438c-0.265-0.054-0.507-0.042-0.718 0.04-0.188 0.05-0.332 0.144-0.442 0.277-0.238-0.211-0.265-0.52-0.078-0.918 0.106-0.215 0.332-0.586 0.68-1.121 0.347-0.586 0.453-1.078 0.32-1.481-0.43 0.11-0.683-0.027-0.762-0.398-0.105-0.535-0.238-0.856-0.398-0.961-0.32-0.215-0.629-0.238-0.922-0.082-0.293 0.187-0.453 0.457-0.48 0.801 0.027-0.801-0.051-1.504-0.239-2.117-0.265-0.883-0.707-0.989-1.32-0.321l-0.16-1.121zm-24.16-5.918c-0.641 0.078-0.879 0.438-0.719 1.078-0.75-0.05-1.293 0-1.641 0.16 0.055 0.266 0.067 0.481 0.039 0.641l-0.437-0.281c0 0.133-0.016 0.242-0.043 0.32-0.024 0.133-0.117 0.254-0.277 0.36-0.348 0.214-0.961 0.16-1.84-0.161h-0.043c-0.133 0.11-0.199 0.321-0.199 0.641l0.039 0.52-0.239-0.2c-0.48-0.48-0.922-0.668-1.32-0.558l0.039 0.398c-0.906-0.801-1.734-1.133-2.48-1l0.043 1.36c-0.59-0.508-1.336-0.692-2.243-0.559h-0.16v0.199c-0.105 0.535 0.067 1.039 0.52 1.52-0.426-0.399-1.266-0.692-2.52-0.879-0.16-0.028-0.304-0.055-0.437-0.082-0.188 0.347-0.336 0.64-0.442 0.883-0.105 0.293-0.199 0.57-0.281 0.839l0.961 0.039c0.266 0.161 0.48 0.575 0.641 1.239 0.132 0.613 0.425 1.027 0.879 1.242 0.16 0.051 0.453 0.078 0.878 0.078-0.023-0.078-0.011-0.227 0.043-0.437 0.559-0.028 1.414-0.055 2.559-0.082-0.133-0.079-0.281-0.254-0.441-0.52 0.242 0.027 0.402-0.012 0.48-0.121l0.281-0.359c0.535-0.344 0.918-0.571 1.16-0.68 0.454-0.16 0.868-0.145 1.239 0.039 0.109-0.426 0.426-0.625 0.961-0.598 0.535 0.028 0.894 0.215 1.082 0.559 0.691-0.371 1.16-0.598 1.398-0.68 0.695-0.187 1.094-0.012 1.199 0.52 0.028-0.852 0.52-1.399 1.481-1.641 0.961-0.238 1.601 0.039 1.922 0.84 0.211-0.078 0.652-0.305 1.316-0.68 0.297-0.16 0.602-0.304 0.922-0.437 0.055-0.508 0.094-1.176 0.121-2 0.078-0.457 0.184-0.844 0.32-1.16-0.214-0.028-0.441-0.028-0.679 0-0.321 0.05-0.524 0.105-0.602 0.16-0.508 0.156-0.785 0.465-0.84 0.918-0.187-0.668-0.347-1.082-0.48-1.243-0.188-0.183-0.387-0.292-0.602-0.32l-0.597 0.082c-0.243 0.082-0.348 0.293-0.321 0.641-0.16-0.266-0.375-0.465-0.64-0.598zm-17.36 4c0.188-0.187 0.375-0.363 0.559-0.523l0.043-0.039c-0.297 0.054-0.469 0.132-0.524 0.242l-0.039 0.039-0.039 0.281zm41.321 20.16v0.039c0.238-0.054 0.425-0.16 0.558-0.32-0.133 0.133-0.32 0.227-0.558 0.281zm-40.161-19.523v0.082c0.051-0.082 0.122-0.188 0.2-0.32-0.078 0.078-0.145 0.16-0.2 0.238z" inkscape:connector-curvature="0"/>
        <path id="path20" style="fill-rule:evenodd;fill:#848958" d="m63 16.257v0.043c0.027-0.055 0.055-0.11 0.078-0.16l-0.078 0.117zm-35.32-12.637 0.961-0.043 0.597-0.078-1.558 0.121zm28.039 21c-0.078 0.16-0.172 0.305-0.278 0.438-0.242 0.32-0.535 0.519-0.882 0.601 0.48-0.082 0.867-0.426 1.16-1.039zm-8.758 5.477c0.184-0.051 0.371-0.133 0.559-0.239 0.613-0.347 1.414-0.933 2.402-1.761 0.156-0.106 0.586-0.184 1.277-0.239 0.16 0 0.309-0.027 0.442-0.078 0-0.882 0.187-1.629 0.558-2.242l0.199-0.359c0 0.051 0.016 0.105 0.043 0.16-0.027-0.215-0.027-0.348 0-0.399 0.051 0 0.094-0.015 0.118-0.042 0.695-1.2 0.707-2.2 0.043-3-0.082-0.106-0.282-0.227-0.602-0.36-0.266-0.133-0.441-0.265-0.52-0.398-0.054-0.082-0.039-0.254 0.04-0.52 0.082-0.269 0.109-0.457 0.082-0.562-0.161-0.453-0.469-0.719-0.922-0.801 0.91-0.984 0.976-1.625 0.199-1.918-0.344-0.133-0.652-0.094-0.918 0.121 0.242-0.27 0.426-0.562 0.562-0.883 0.266-0.558 0.278-1 0.039-1.32-0.242-0.344-0.613-0.449-1.121-0.317-0.558 0.184-0.972 0.278-1.238 0.278-0.082-0.426-0.137-0.957-0.16-1.598-0.133-0.48-0.574-0.734-1.32-0.762-1.176-0.027-1.828 0.629-1.961 1.961 0.054-0.828-0.305-1.546-1.082-2.16-0.825-0.613-1.598-0.668-2.317-0.16v2.238c-0.375-0.398-0.883-0.746-1.519-1.039-0.774-0.375-1.348-0.425-1.719-0.16-0.16 0.106-0.242 0.442-0.242 1 0.027 0.641 0.012 1.012-0.039 1.121-0.563-0.269-1.016-0.48-1.364-0.64-0.664-0.243-1.144-0.282-1.437-0.121-0.32 0.187-0.492 0.464-0.52 0.839 0 0.133 0.028 0.493 0.079 1.082-1.067-1.546-1.985-2.175-2.758-1.882 0.054-0.211 0.265-0.559 0.64-1.039 0.211-0.266 0.454-0.735 0.719-1.403 0.293-0.637 0.559-1.105 0.801-1.398 0-0.188 0.078-0.36 0.238-0.52 0.403-0.082 0.735-0.238 1-0.48 0.215-0.215 0.336-0.442 0.36-0.68 0-0.105-0.024-0.375-0.079-0.801-0.027-0.398-0.066-0.961-0.121-1.679-0.718-0.133-1.492-0.149-2.32-0.039-0.105 0.292-0.211 0.613-0.32 0.957-0.266 0.933-0.481 1.601-0.637 2-0.27 0.64-0.684 0.921-1.242 0.839-0.453-0.078-0.945-0.382-1.481-0.918 0.082-0.027 0.426-0.011 1.039 0.039 0.508 0.028 0.829-0.011 0.961-0.117 0.055-0.054 0.2-0.492 0.442-1.32 0.054-0.266 0.105-0.68 0.16-1.238-0.32 0.133-0.629 0.277-0.922 0.437-0.664 0.375-1.105 0.602-1.32 0.68-0.321-0.801-0.957-1.078-1.918-0.84-0.961 0.242-1.453 0.789-1.481 1.641-0.105-0.532-0.508-0.707-1.199-0.52-0.242 0.082-0.707 0.309-1.402 0.68-0.184-0.348-0.547-0.531-1.078-0.559-0.536-0.027-0.856 0.172-0.961 0.598-0.375-0.184-0.785-0.199-1.239-0.039-0.242 0.109-0.629 0.336-1.16 0.68l-0.281 0.359c-0.078 0.109-0.238 0.148-0.481 0.121 0.161 0.266 0.309 0.441 0.442 0.52-1.149 0.027-2 0.054-2.563 0.082-0.05 0.21-0.066 0.359-0.039 0.437-0.425 0-0.718-0.023-0.879-0.078 0.348 0.133 1.012 0.144 2 0.039-0.082 1.199 0.375 1.695 1.36 1.48 0.558-0.105 1.441-0.332 2.64-0.679-0.293 0-0.812 0.133-1.558 0.398-0.215-0.211-0.363-0.426-0.442-0.637 0.348-0.375 1.161-0.55 2.442-0.523 1.277 0.027 2.211 0.227 2.797 0.602-0.133-0.215-0.2-0.426-0.2-0.641 1.094-0.266 1.813-0.121 2.161 0.441-0.161-0.48-0.2-0.972-0.121-1.48 0.429-0.109 0.789-0.055 1.082 0.16 0.265 0.211 0.425 0.52 0.48 0.918v-0.84c0.32-0.133 0.746-0.172 1.277-0.121 0.59 0.055 0.961 0.215 1.121 0.484 0.133 0.239 0.161 0.532 0.083 0.879-0.055 0.293-0.149 0.465-0.282 0.52h0.36c0.215 0.851-0.039 1.586-0.758 2.199l-0.043 0.039-1.957 2.762-0.363 0.121c0.027 0.426 0.214 1.051 0.562 1.879 0.371 0.934 0.598 1.574 0.68 1.918 0.027 0.082 0.105 0.187 0.238 0.32 0.137 0.137 0.199 0.336 0.199 0.602-0.133 0.586-0.199 1.121-0.199 1.601 0.348 0.879 1.148 1.078 2.402 0.598 1.36-0.531 2.172-0.664 2.438-0.398-0.238-0.266-0.746-0.254-1.52 0.039-0.691-0.508-1.105-0.934-1.238-1.282h1.199c0-0.211-0.082-0.558-0.238-1.039-0.16-0.425-0.203-0.773-0.121-1.039 0.906-0.347 1.918-0.414 3.039-0.199-0.559-0.613-0.867-1.148-0.918-1.602 0.293-0.238 0.758-0.214 1.398 0.082 0.536 0.266 0.946 0.571 1.243 0.918 0.023-0.293 0.011-0.707-0.043-1.238 0.027-0.457 0.269-0.707 0.718-0.762 0.934-0.132 1.485 0.762 1.641 2.68 0-0.773 0.227-1.172 0.684-1.199 0.691-0.106 1.144 0.441 1.359 1.641 0.051-0.508 0.293-0.817 0.719-0.922 0.347-0.078 0.668 0.015 0.961 0.281 0.265 0.215 0.437 0.508 0.519 0.879-0.082-0.824-0.215-1.559-0.402-2.199-0.027-0.106-0.172-0.508-0.442-1.2-0.21-0.668-0.25-1.082-0.117-1.242 0.399-0.426 0.973-0.226 1.719 0.602 0.613 0.668 0.973 1.226 1.082 1.679-0.082-0.425 0.066-0.734 0.438-0.918 0.402-0.214 0.828-0.16 1.281 0.157 0.48 0.375 0.679 1.066 0.601 2.082-0.109 0.933-0.363 1.64-0.765 2.121 0.453-0.453 0.761-0.188 0.922 0.797 0.132 0.883-0.067 1.429-0.602 1.64 0.266-0.078 0.52 0 0.762 0.243 0.238 0.238 0.371 0.558 0.398 0.96 0 0.586-0.226 0.918-0.679 1 0.933 0.106 1.371 0.774 1.32 2-0.774 0.614-1.399 1-1.879 1.157zm-15.68-10.52c0.16 0.348 0.184 1 0.078 1.961l-1.757-2.719c0.878-0.027 1.437 0.227 1.679 0.758zm19.278 3.883c0.242 0.266 0.32 0.73 0.242 1.398-0.133 0.719-0.215 1.215-0.242 1.481l-0.797-2.602c-0.215-0.078-0.364-0.211-0.442-0.398 0.16-0.215 0.371-0.293 0.641-0.242 0.211 0.054 0.414 0.176 0.598 0.363zm-13.52 5.199c-0.105-0.054-0.199-0.121-0.277-0.199 0.05 0.078 0.117 0.145 0.199 0.199h0.078zm-2.719-2.199c0.051 0.453 0.188 0.785 0.399 1 0.269-0.082 0.492-0.215 0.679-0.402-0.16 0.132-0.332 0.242-0.519 0.32l-0.559-0.918zm1.68-0.363c-0.027-0.051-0.039-0.106-0.039-0.157-0.027 0.184-0.055 0.344-0.082 0.477 0.027-0.105 0.066-0.211 0.121-0.32zm-1.762-0.68v-0.32c-0.023-0.453-0.105-0.797-0.238-1.039 0.133 0.265 0.215 0.722 0.238 1.359zm5.524-7.879c0.05-0.078 0-0.492-0.16-1.238-0.137-0.535 0.05-0.817 0.558-0.84 0.426-0.027 0.735 0.254 0.918 0.84 0.16 0.48 0.199 0.945 0.121 1.398-0.078 0.375-0.187 0.586-0.32 0.641-0.106 0.055-0.414 0.055-0.918 0l-0.199-0.801zm-7 0.801-1.203 0.199-0.758-1.719c0.746-0.054 1.277 0.012 1.597 0.2 0.403 0.214 0.524 0.652 0.364 1.32zm2.039-7.359-0.082 0.117c-0.211 0.484-0.36 0.922-0.442 1.32 0.055-0.078 0.215-0.519 0.485-1.32l0.039-0.117zm-25.762-3.282c0.106 0.028 0.215 0.055 0.32 0.082 0.215 0.028 0.414 0.039 0.602 0.039-0.266-0.027-0.574-0.066-0.922-0.121z" inkscape:connector-curvature="0"/>
        <path id="path22" style="fill-rule:evenodd;fill:#939865" d="m50.559 23.46c-0.184-0.187-0.387-0.309-0.598-0.363-0.27-0.051-0.481 0.027-0.641 0.242 0.078 0.187 0.227 0.32 0.442 0.398l0.797 2.602c0.027-0.266 0.109-0.762 0.242-1.481 0.078-0.668 0-1.132-0.242-1.398zm-14.559 2.637c0.027 0.562 0.105 1.027 0.238 1.402l0.364 0.719c0.05 0.105 0.105 0.187 0.16 0.242 0.078 0.078 0.172 0.145 0.277 0.199 0 0.028 0.027 0.055 0.082 0.078 0.668 0.293 1.758 0.161 3.281-0.398-0.136 1.305 0.465 1.934 1.797 1.879 1.149-0.055 2.149-0.414 3-1.078 0.321 0.851 0.867 1.183 1.641 1l0.121-0.043c0.48-0.157 1.105-0.547 1.879-1.157 0.055-1.226-0.387-1.894-1.32-2 0.453-0.082 0.679-0.414 0.679-1-0.023-0.402-0.16-0.722-0.398-0.96-0.239-0.243-0.492-0.321-0.762-0.243 0.535-0.211 0.734-0.757 0.602-1.64-0.161-0.985-0.465-1.25-0.918-0.797 0.398-0.481 0.652-1.188 0.757-2.121 0.082-1.016-0.117-1.707-0.601-2.082-0.449-0.317-0.879-0.371-1.277-0.157-0.375 0.184-0.52 0.493-0.442 0.918-0.105-0.453-0.465-1.011-1.082-1.679-0.746-0.828-1.316-1.028-1.719-0.602-0.132 0.16-0.093 0.574 0.121 1.242 0.266 0.692 0.415 1.094 0.442 1.2 0.183 0.64 0.316 1.375 0.398 2.199-0.082-0.371-0.254-0.664-0.519-0.879-0.293-0.266-0.613-0.359-0.961-0.281-0.426 0.105-0.664 0.414-0.719 0.922-0.215-1.2-0.668-1.75-1.359-1.641-0.453 0.027-0.68 0.426-0.68 1.199-0.16-1.918-0.707-2.812-1.641-2.68-0.453 0.055-0.695 0.305-0.718 0.762 0.05 0.531 0.066 0.945 0.039 1.238-0.293-0.347-0.707-0.652-1.239-0.918-0.644-0.296-1.109-0.32-1.402-0.082 0.055 0.454 0.359 0.989 0.918 1.602-1.117-0.215-2.133-0.148-3.039 0.199-0.078 0.266-0.039 0.614 0.121 1.039 0.16 0.481 0.238 0.828 0.238 1.039h-1.199c0.133 0.348 0.547 0.774 1.242 1.282 0.774-0.293 1.278-0.305 1.52-0.039l0.078 0.078c0.133 0.242 0.215 0.586 0.242 1.039v0.601c0 0.188 0.012 0.36 0.039 0.52v0.242h0.039l0.559 0.918c0.187-0.078 0.359-0.188 0.519-0.32l0.043-0.039c0.184-0.161 0.332-0.36 0.438-0.602 0.027-0.133 0.055-0.293 0.082-0.477 0 0.051 0.012 0.106 0.039 0.157zm-3.238-7.758c0.16-0.668 0.039-1.106-0.364-1.32-0.32-0.188-0.851-0.254-1.597-0.2l0.758 1.719 1.203-0.199zm7-0.801 0.199 0.801c0.504 0.055 0.812 0.055 0.918 0 0.133-0.055 0.242-0.266 0.32-0.641 0.078-0.453 0.039-0.918-0.121-1.398-0.183-0.586-0.492-0.867-0.918-0.84-0.508 0.027-0.695 0.305-0.558 0.84 0.16 0.746 0.21 1.16 0.16 1.238zm-8.481 2.039c-0.242-0.531-0.801-0.785-1.679-0.758l1.757 2.719c0.106-0.961 0.082-1.613-0.078-1.961zm-1.32-5.039c0.719-0.613 0.973-1.348 0.758-2.199h-0.36c0.133-0.055 0.227-0.227 0.282-0.52 0.078-0.347 0.054-0.64-0.082-0.879-0.161-0.269-0.532-0.429-1.118-0.484-0.535-0.051-0.961-0.012-1.281 0.121v0.84c-0.055-0.398-0.215-0.707-0.48-0.918-0.293-0.215-0.653-0.266-1.078-0.16-0.082 0.508-0.043 1 0.117 1.48-0.344-0.558-1.067-0.707-2.16-0.441 0 0.215 0.066 0.43 0.203 0.641-0.59-0.371-1.524-0.575-2.801-0.598-1.281-0.027-2.094 0.144-2.441 0.519 0.082 0.211 0.226 0.426 0.441 0.641 0.746-0.269 1.266-0.402 1.559-0.402 0.265 0 0.734 0.082 1.402 0.242 0.531 0.16 0.984 0.199 1.359 0.117 0.078 1.121 0.145 1.789 0.199 2 0.215 0.828 0.598 1.254 1.161 1.281 0.347 0.028 0.691-0.144 1.039-0.519 0.425-0.426 0.734-0.668 0.922-0.719 0.746-0.109 1.531-0.121 2.359-0.043z" inkscape:connector-curvature="0"/>
    </g>
  </g>
    <metadata><rdf:RDF><cc:Work><dc:format>image/svg+xml</dc:format><dc:type rdf:resource="http://purl.org/dc/dcmitype/StillImage"/><cc:license rdf:resource="http://creativecommons.org/licenses/publicdomain/"/><dc:publisher><cc:Agent rdf:about="http://openclipart.org/"><dc:title>Openclipart</dc:title></cc:Agent></dc:publisher></cc:Work><cc:License rdf:about="http://creativecommons.org/licenses/publicdomain/"><cc:permits rdf:resource="http://creativecommons.org/ns#Reproduction"/><cc:permits rdf:resource="http://creativecommons.org/ns#Distribution"/><cc:permits rdf:resource="http://creativecommons.org/ns#DerivativeWorks"/></cc:License></rdf:RDF></metadata></svg>
